<?xml version="1.0" encoding="UTF-8" standalone="no"?>
<!DOCTYPE svg PUBLIC "-//W3C//DTD SVG 1.1//EN" "http://www.w3.org/Graphics/SVG/1.1/DTD/svg11.dtd">
<!-- Generated by Microsoft Visio, SVG Export Fig 2 DIP.svg Page-1 -->
<svg xmlns="http://www.w3.org/2000/svg" xmlns:xlink="http://www.w3.org/1999/xlink" xmlns:ev="http://www.w3.org/2001/xml-events"
		xmlns:v="http://schemas.microsoft.com/visio/2003/SVGExtensions/" width="21.1357in" height="10.1253in"
		viewBox="0 0 1521.77 729.019" xml:space="preserve" color-interpolation-filters="sRGB" class="st12">
	<v:documentProperties v:langID="2057" v:metric="true" v:viewMarkup="false"/>

	<style type="text/css">
	<![CDATA[
		.st1 {visibility:visible}
		.st2 {fill:#000000;fill-opacity:0.4;filter:url(#filter_2.6666667461395);stroke:#000000;stroke-linecap:round;stroke-linejoin:round;stroke-opacity:0.4}
		.st3 {fill:#c6d8f0;stroke:#000000;stroke-linecap:round;stroke-linejoin:round;stroke-width:0.24}
		.st4 {fill:#000000;font-family:Arial;font-size:1.00001em;font-weight:bold}
		.st5 {stroke:#000000;stroke-linecap:round;stroke-linejoin:round;stroke-width:2}
		.st6 {stroke:#000000;stroke-linecap:round;stroke-linejoin:round;stroke-width:2.25}
		.st7 {fill:#c6d8f0;stroke:#000000;stroke-dasharray:7.5,7.5;stroke-linecap:round;stroke-linejoin:round;stroke-opacity:0.6;stroke-width:2.5}
		.st8 {fill:#f9dc53;stroke:#000000;stroke-linecap:round;stroke-linejoin:round;stroke-width:0.24}
		.st9 {fill:#000000;fill-opacity:0.4;filter:url(#filter_2.6666667461395);stroke:#000000;stroke-dasharray:7.5,7.5;stroke-linecap:round;stroke-linejoin:round;stroke-opacity:0.4}
		.st10 {fill:#f9dc53;stroke:#000000;stroke-dasharray:7.5,7.5;stroke-linecap:round;stroke-linejoin:round;stroke-opacity:0.6;stroke-width:2.5}
		.st11 {fill:#000000;font-family:Arial;font-size:0.916672em;font-weight:bold}
		.st12 {fill:none;fill-rule:evenodd;font-size:12px;overflow:visible;stroke-linecap:square;stroke-miterlimit:3}
	]]>
	</style>

	<defs id="Filters">
		<filter id="filter_2.6666667461395">
			<feGaussianBlur stdDeviation="2.6666667461395"/>
		</filter>
	</defs>
	<g v:mID="0" v:index="1" v:groupContext="foregroundPage">
		<title>Page-1</title>
		<v:pageProperties v:drawingScale="0.0393701" v:pageScale="0.0393701" v:drawingUnits="24" v:shadowOffsetX="8.50394"
				v:shadowOffsetY="-8.50394"/>
		<g id="shape1-1" v:mID="1" v:groupContext="shape" transform="translate(458.171,-689.638)">
			<title>Rectangle.495</title>
			<desc>IP_Name</desc>
			<v:userDefs>
				<v:ud v:nameU="visVersion" v:val="VT0(11):26"/>
			</v:userDefs>
			<v:textBlock v:margins="rect(4,4,4,4)" v:tabSpace="42.5197"/>
			<v:textRect cx="84.1101" cy="710.328" width="168.23" height="37.3823"/>
			<g id="shadow1-2" v:groupContext="shadow" v:shadowOffsetX="2.12132" v:shadowOffsetY="-2.12132" v:shadowType="1"
					transform="matrix(1,0,0,1,2.12132,2.12132)" class="st1">
				<rect x="0" y="691.637" width="168.22" height="37.3823" class="st2"/>
			</g>
			<rect x="0" y="691.637" width="168.22" height="37.3823" class="st3"/>
			<text x="58.76" y="713.93" class="st4" v:langID="2057"><v:paragraph v:horizAlign="1"/><v:tabList/>IP_Name</text>		</g>
		<g id="shape2-7" v:mID="2" v:groupContext="shape" transform="translate(85.2749,-596.811)">
			<title>Sheet.2</title>
			<path d="M0 729.02 L394.3 729.02" class="st5"/>
		</g>
		<g id="shape3-10" v:mID="3" v:groupContext="shape" transform="translate(215.107,-670.947) rotate(-0.00620733)">
			<title>Sheet.3</title>
			<path d="M0 729.02 L1213.99 729.02" class="st6"/>
		</g>
		<g id="shape4-13" v:mID="4" v:groupContext="shape" transform="translate(-6.87821,549.369) rotate(-90)">
			<title>Sheet.4</title>
			<path d="M0 729.02 L70.09 729.02" class="st6"/>
		</g>
		<g id="shape5-16" v:mID="5" v:groupContext="shape" transform="translate(-513.833,76.7632) rotate(-90)">
			<title>Sheet.5</title>
			<path d="M0 729.02 L18.69 729.02" class="st6"/>
		</g>
		<g id="shape6-19" v:mID="6" v:groupContext="shape" transform="translate(199.675,-540.73)">
			<title>Rectangle.501</title>
			<desc>preservation</desc>
			<v:userDefs>
				<v:ud v:nameU="visVersion" v:val="VT0(11):26"/>
			</v:userDefs>
			<v:textBlock v:margins="rect(4,4,4,4)" v:tabSpace="42.5197"/>
			<v:textRect cx="84.1101" cy="710.328" width="168.23" height="37.3823"/>
			<path d="M0 729.02 L168.22 729.02 L168.22 691.64 L0 691.64 L0 729.02 Z" class="st7"/>
			<text x="48.1" y="713.93" class="st4" v:langID="2057"><v:paragraph v:horizAlign="1"/><v:tabList/>preservation</text>		</g>
		<g id="shape7-22" v:mID="7" v:groupContext="shape" transform="translate(1208.84,126.561) rotate(89.4448)">
			<title>Sheet.7</title>
			<path d="M0 729.02 L18.38 729.02" class="st5"/>
		</g>
		<g id="shape8-25" v:mID="8" v:groupContext="shape" transform="translate(738.538,-614.874)">
			<title>Rectangle.503</title>
			<desc>representations</desc>
			<v:userDefs>
				<v:ud v:nameU="visVersion" v:val="VT0(11):26"/>
			</v:userDefs>
			<v:textBlock v:margins="rect(4,4,4,4)" v:tabSpace="42.5197"/>
			<v:textRect cx="84.1101" cy="710.328" width="168.23" height="37.3823"/>
			<g id="shadow8-26" v:groupContext="shadow" v:shadowOffsetX="2.12132" v:shadowOffsetY="-2.12132" v:shadowType="1"
					transform="matrix(1,0,0,1,2.12132,2.12132)" class="st1">
				<rect x="0" y="691.637" width="168.22" height="37.3823" class="st2"/>
			</g>
			<rect x="0" y="691.637" width="168.22" height="37.3823" class="st3"/>
			<text x="39.1" y="713.93" class="st4" v:langID="2057"><v:paragraph v:horizAlign="1"/><v:tabList/>representations</text>		</g>
		<g id="shape9-31" v:mID="9" v:groupContext="shape" transform="translate(93.6286,76.7632) rotate(-90)">
			<title>Sheet.9</title>
			<path d="M0 729.02 L18.69 729.02" class="st6"/>
		</g>
		<g id="shape10-34" v:mID="10" v:groupContext="shape" transform="translate(131.076,-614.874)">
			<title>Rectangle.505</title>
			<desc>METS.xml</desc>
			<v:userDefs>
				<v:ud v:nameU="visVersion" v:val="VT0(11):26"/>
			</v:userDefs>
			<v:textBlock v:margins="rect(4,4,4,4)" v:tabSpace="42.5197"/>
			<v:textRect cx="84.1101" cy="710.328" width="168.23" height="37.3823"/>
			<g id="shadow10-35" v:groupContext="shadow" v:shadowOffsetX="2.12132" v:shadowOffsetY="-2.12132" v:shadowType="1"
					transform="matrix(1,0,0,1,2.12132,2.12132)" class="st1">
				<rect x="0" y="691.637" width="168.22" height="37.3823" class="st2"/>
			</g>
			<rect x="0" y="691.637" width="168.22" height="37.3823" class="st8"/>
			<text x="55.44" y="713.93" class="st4" v:langID="2057"><v:paragraph v:horizAlign="1"/><v:tabList/>METS.xml</text>		</g>
		<g id="shape11-40" v:mID="11" v:groupContext="shape" transform="translate(327.333,-614.874)">
			<title>Rectangle.506</title>
			<desc>metadata</desc>
			<v:userDefs>
				<v:ud v:nameU="visVersion" v:val="VT0(11):26"/>
			</v:userDefs>
			<v:textBlock v:margins="rect(4,4,4,4)" v:tabSpace="42.5197"/>
			<v:textRect cx="84.1101" cy="710.328" width="168.23" height="37.3823"/>
			<g id="shadow11-41" v:groupContext="shadow" v:shadowOffsetX="2.12132" v:shadowOffsetY="-2.12132" v:shadowType="1"
					transform="matrix(1,0,0,1,2.12132,2.12132)" class="st1">
				<rect x="0" y="691.637" width="168.22" height="37.3823" class="st2"/>
			</g>
			<rect x="0" y="691.637" width="168.22" height="37.3823" class="st3"/>
			<text x="57.77" y="713.93" class="st4" v:langID="2057"><v:paragraph v:horizAlign="1"/><v:tabList/>metadata</text>		</g>
		<g id="shape12-46" v:mID="12" v:groupContext="shape" transform="translate(-502.966,277.041) rotate(-90)">
			<title>Sheet.12</title>
			<path d="M0 729.02 L88.75 729.02" class="st6"/>
		</g>
		<g id="shape13-49" v:mID="13" v:groupContext="shape" transform="translate(249.448,955.003) rotate(180)">
			<title>Sheet.13</title>
			<path d="M0 729.02 L23.4 729.02" class="st6"/>
		</g>
		<g id="shape14-52" v:mID="14" v:groupContext="shape" transform="translate(-700.861,273.07) rotate(-89.8128)">
			<title>Sheet.14</title>
			<path d="M0 729.02 L87.91 729.02" class="st6"/>
		</g>
		<g id="shape15-55" v:mID="15" v:groupContext="shape" transform="translate(-317.464,135.374) rotate(-90.3379)">
			<title>Sheet.15</title>
			<path d="M0 729.02 L16.93 729.02" class="st6"/>
		</g>
		<g id="shape16-58" v:mID="16" v:groupContext="shape" transform="translate(-317.576,76.7632) rotate(-90)">
			<title>Sheet.16</title>
			<path d="M0 729.02 L18.69 729.02" class="st6"/>
		</g>
		<g id="shape17-61" v:mID="17" v:groupContext="shape" transform="translate(49.847,-485.091)">
			<title>Rectangle.512</title>
			<desc>EAD.xml</desc>
			<v:userDefs>
				<v:ud v:nameU="visVersion" v:val="VT0(11):26"/>
			</v:userDefs>
			<v:textBlock v:margins="rect(4,4,4,4)" v:tabSpace="42.5197"/>
			<v:textRect cx="59.8116" cy="710.328" width="119.63" height="37.3823"/>
			<g id="shadow17-62" v:groupContext="shadow" v:shadowOffsetX="2.12132" v:shadowOffsetY="-2.12132" v:shadowType="1"
					transform="matrix(1,0,0,1,2.12132,2.12132)" class="st1">
				<path d="M0 729.02 L119.62 729.02 L119.62 691.64 L0 691.64 L0 729.02 Z" class="st9"/>
			</g>
			<path d="M0 729.02 L119.62 729.02 L119.62 691.64 L0 691.64 L0 729.02 Z" class="st10"/>
			<text x="35.14" y="713.93" class="st4" v:langID="2057"><v:paragraph v:horizAlign="1"/><v:tabList/>EAD.xml</text>		</g>
		<g id="shape18-67" v:mID="18" v:groupContext="shape" transform="translate(51.9371,954.254) rotate(179.836)">
			<title>Sheet.18</title>
			<path d="M0 729.02 L21.69 729.02" class="st6"/>
		</g>
		<g id="shape19-70" v:mID="19" v:groupContext="shape" transform="translate(249.448,-484.345)">
			<title>Rectangle.514</title>
			<desc>PREMIS.xml</desc>
			<v:userDefs>
				<v:ud v:nameU="visVersion" v:val="VT0(11):26"/>
			</v:userDefs>
			<v:textBlock v:margins="rect(4,4,4,4)" v:tabSpace="42.5197"/>
			<v:textRect cx="59.8116" cy="710.328" width="119.63" height="37.3823"/>
			<path d="M0 729.02 L119.62 729.02 L119.62 691.64 L0 691.64 L0 729.02 Z" class="st10"/>
			<text x="24.8" y="713.93" class="st4" v:langID="2057"><v:paragraph v:horizAlign="1"/><v:tabList/>PREMIS.xml</text>		</g>
		<g id="shape20-73" v:mID="20" v:groupContext="shape" transform="translate(1013.25,125.144) rotate(89.4448)">
			<title>Sheet.20</title>
			<path d="M0 729.02 L18.38 729.02" class="st5"/>
		</g>
		<g id="shape21-76" v:mID="21" v:groupContext="shape" transform="translate(728.98,-596.171) rotate(-0.00262898)">
			<title>Sheet.21</title>
			<path d="M0 729.02 L249.29 729.02" class="st5"/>
		</g>
		<g id="shape22-79" v:mID="22" v:groupContext="shape" transform="translate(645.082,-540.421)">
			<title>Rectangle.517</title>
			<desc>representationID</desc>
			<v:userDefs>
				<v:ud v:nameU="visVersion" v:val="VT0(11):26"/>
			</v:userDefs>
			<v:textBlock v:margins="rect(4,4,4,4)" v:tabSpace="42.5197"/>
			<v:textRect cx="84.1101" cy="710.334" width="168.23" height="37.3708"/>
			<g id="shadow22-80" v:groupContext="shadow" v:shadowOffsetX="2.12132" v:shadowOffsetY="-2.12132" v:shadowType="1"
					transform="matrix(1,0,0,1,2.12132,2.12132)" class="st1">
				<rect x="0" y="691.648" width="168.22" height="37.3708" class="st2"/>
			</g>
			<rect x="0" y="691.648" width="168.22" height="37.3708" class="st3"/>
			<text x="36.43" y="713.93" class="st4" v:langID="2057"><v:paragraph v:horizAlign="1"/><v:tabList/>representationID</text>		</g>
		<g id="shape23-85" v:mID="23" v:groupContext="shape" transform="translate(1707.28,125.772) rotate(89.4448)">
			<title>Sheet.23</title>
			<path d="M0 729.02 L18.38 729.02" class="st5"/>
		</g>
		<g id="shape24-88" v:mID="24" v:groupContext="shape" transform="translate(94.2281,149.124) rotate(-91.2797)">
			<title>Sheet.24</title>
			<path d="M0 729.02 L18.7 729.02" class="st6"/>
		</g>
		<g id="shape25-91" v:mID="25" v:groupContext="shape" transform="translate(695.973,-249.742)">
			<title>Rectangle.522</title>
			<desc>data</desc>
			<v:userDefs>
				<v:ud v:nameU="visVersion" v:val="VT0(11):26"/>
			</v:userDefs>
			<v:textBlock v:margins="rect(4,4,4,4)" v:tabSpace="42.5197"/>
			<v:textRect cx="59.8116" cy="710.328" width="119.63" height="37.3823"/>
			<g id="shadow25-92" v:groupContext="shadow" v:shadowOffsetX="2.12132" v:shadowOffsetY="-2.12132" v:shadowType="1"
					transform="matrix(1,0,0,1,2.12132,2.12132)" class="st1">
				<rect x="0" y="691.637" width="119.623" height="37.3823" class="st2"/>
			</g>
			<rect x="0" y="691.637" width="119.623" height="37.3823" class="st3"/>
			<text x="47.47" y="713.93" class="st4" v:langID="2057"><v:paragraph v:horizAlign="1"/><v:tabList/>data</text>		</g>
		<g id="shape26-97" v:mID="26" v:groupContext="shape" transform="translate(695.541,1189.61) rotate(-179.966)">
			<title>Sheet.26</title>
			<path d="M0 729.02 L21.69 729.02" class="st6"/>
		</g>
		<g id="shape27-100" v:mID="27" v:groupContext="shape" transform="translate(1458,125.783) rotate(89.4448)">
			<title>Sheet.27</title>
			<path d="M0 729.02 L18.38 729.02" class="st5"/>
		</g>
		<g id="shape28-103" v:mID="28" v:groupContext="shape" transform="translate(740.832,-207.687)">
			<title>Rectangle.526</title>
			<desc>File1.doc</desc>
			<v:userDefs>
				<v:ud v:nameU="visVersion" v:val="VT0(11):26"/>
			</v:userDefs>
			<v:textBlock v:margins="rect(4,4,4,4)" v:tabSpace="42.5197"/>
			<v:textRect cx="56.0734" cy="715.001" width="112.15" height="28.0367"/>
			<g id="shadow28-104" v:groupContext="shadow" v:shadowOffsetX="2.12132" v:shadowOffsetY="-2.12132" v:shadowType="1"
					transform="matrix(1,0,0,1,2.12132,2.12132)" class="st1">
				<path d="M0 729.02 L112.15 729.02 L112.15 700.98 L0 700.98 L0 729.02 Z" class="st9"/>
			</g>
			<path d="M0 729.02 L112.15 729.02 L112.15 700.98 L0 700.98 L0 729.02 Z" class="st10"/>
			<text x="30.07" y="718.6" class="st4" v:langID="2057"><v:paragraph v:horizAlign="1"/><v:tabList/>File1.doc</text>		</g>
		<g id="shape29-109" v:mID="29" v:groupContext="shape" transform="translate(740.832,-165.632)">
			<title>Rectangle.527</title>
			<desc>...</desc>
			<v:userDefs>
				<v:ud v:nameU="visVersion" v:val="VT0(11):26"/>
			</v:userDefs>
			<v:textBlock v:margins="rect(4,4,4,4)" v:tabSpace="42.5197"/>
			<v:textRect cx="56.0734" cy="715.001" width="112.15" height="28.0367"/>
			<g id="shadow29-110" v:groupContext="shadow" v:shadowOffsetX="2.12132" v:shadowOffsetY="-2.12132" v:shadowType="1"
					transform="matrix(1,0,0,1,2.12132,2.12132)" class="st1">
				<path d="M0 729.02 L112.15 729.02 L112.15 700.98 L0 700.98 L0 729.02 Z" class="st9"/>
			</g>
			<path d="M0 729.02 L112.15 729.02 L112.15 700.98 L0 700.98 L0 729.02 Z" class="st10"/>
			<text x="51.07" y="718.6" class="st4" v:langID="2057"><v:paragraph v:horizAlign="1"/><v:tabList/>...</text>		</g>
		<g id="shape30-115" v:mID="30" v:groupContext="shape" transform="translate(740.832,1278.39) rotate(180)">
			<title>Sheet.30</title>
			<path d="M0 729.02 L18.69 729.02" class="st6"/>
		</g>
		<g id="shape31-118" v:mID="31" v:groupContext="shape" transform="translate(740.832,1236.33) rotate(180)">
			<title>Sheet.31</title>
			<path d="M0 729.02 L18.69 729.02" class="st6"/>
		</g>
		<g id="shape32-121" v:mID="32" v:groupContext="shape" transform="translate(259.207,1005.09) rotate(179.233)">
			<title>Sheet.32</title>
			<path d="M0 729.02 L23.4 729.02" class="st6"/>
		</g>
		<g id="shape33-124" v:mID="33" v:groupContext="shape" transform="translate(49.847,-434.938)">
			<title>Rectangle.531</title>
			<desc>… .xml</desc>
			<v:userDefs>
				<v:ud v:nameU="visVersion" v:val="VT0(11):26"/>
			</v:userDefs>
			<v:textBlock v:margins="rect(4,4,4,4)" v:tabSpace="42.5197"/>
			<v:textRect cx="59.8116" cy="710.328" width="119.63" height="37.3823"/>
			<g id="shadow33-125" v:groupContext="shadow" v:shadowOffsetX="2.12132" v:shadowOffsetY="-2.12132" v:shadowType="1"
					transform="matrix(1,0,0,1,2.12132,2.12132)" class="st1">
				<path d="M0 729.02 L119.62 729.02 L119.62 691.64 L0 691.64 L0 729.02 Z" class="st9"/>
			</g>
			<path d="M0 729.02 L119.62 729.02 L119.62 691.64 L0 691.64 L0 729.02 Z" class="st10"/>
			<text x="40.14" y="713.93" class="st4" v:langID="2057"><v:paragraph v:horizAlign="1"/><v:tabList/>… .xml</text>		</g>
		<g id="shape34-130" v:mID="34" v:groupContext="shape" transform="translate(51.9371,1004.41) rotate(179.836)">
			<title>Sheet.34</title>
			<path d="M0 729.02 L21.69 729.02" class="st6"/>
		</g>
		<g id="shape35-133" v:mID="35" v:groupContext="shape" transform="translate(249.448,-434.192)">
			<title>Rectangle.533</title>
			<desc>… .xml</desc>
			<v:userDefs>
				<v:ud v:nameU="visVersion" v:val="VT0(11):26"/>
			</v:userDefs>
			<v:textBlock v:margins="rect(4,4,4,4)" v:tabSpace="42.5197"/>
			<v:textRect cx="59.8116" cy="710.328" width="119.63" height="37.3823"/>
			<path d="M0 729.02 L119.62 729.02 L119.62 691.64 L0 691.64 L0 729.02 Z" class="st10"/>
			<text x="40.14" y="713.93" class="st4" v:langID="2057"><v:paragraph v:horizAlign="1"/><v:tabList/>… .xml</text>		</g>
		<g id="shape36-136" v:mID="36" v:groupContext="shape" transform="translate(-186.738,58.0721) rotate(-90)">
			<title>Sheet.36</title>
			<path d="M0 729.02 L18.69 729.02" class="st6"/>
		</g>
		<g id="shape37-139" v:mID="37" v:groupContext="shape" transform="translate(293.63,79.5599) rotate(-90.2854)">
			<title>Sheet.37</title>
			<path d="M0 729.02 L17.21 729.02" class="st6"/>
		</g>
		<g id="shape38-142" v:mID="38" v:groupContext="shape" transform="translate(938.53,-615.709)">
			<title>Rectangle.541</title>
			<desc>schemas</desc>
			<v:userDefs>
				<v:ud v:nameU="visVersion" v:val="VT0(11):26"/>
			</v:userDefs>
			<v:textBlock v:margins="rect(4,4,4,4)" v:tabSpace="42.5197"/>
			<v:textRect cx="84.1101" cy="710.328" width="168.23" height="37.3823"/>
			<g id="shadow38-143" v:groupContext="shadow" v:shadowOffsetX="2.12132" v:shadowOffsetY="-2.12132" v:shadowType="1"
					transform="matrix(1,0,0,1,2.12132,2.12132)" class="st1">
				<path d="M0 729.02 L168.22 729.02 L168.22 691.64 L0 691.64 L0 729.02 Z" class="st9"/>
			</g>
			<path d="M0 729.02 L168.22 729.02 L168.22 691.64 L0 691.64 L0 729.02 Z" class="st7"/>
			<text x="58.43" y="713.93" class="st4" v:langID="2057"><v:paragraph v:horizAlign="1"/><v:tabList/>schemas</text>		</g>
		<g id="shape39-148" v:mID="39" v:groupContext="shape" transform="translate(1145.05,-614.359)">
			<title>Rectangle.542</title>
			<desc>documentation</desc>
			<v:userDefs>
				<v:ud v:nameU="visVersion" v:val="VT0(11):26"/>
			</v:userDefs>
			<v:textBlock v:margins="rect(4,4,4,4)" v:tabSpace="42.5197"/>
			<v:textRect cx="84.1101" cy="710.328" width="168.23" height="37.3823"/>
			<g id="shadow39-149" v:groupContext="shadow" v:shadowOffsetX="2.12132" v:shadowOffsetY="-2.12132" v:shadowType="1"
					transform="matrix(1,0,0,1,2.12132,2.12132)" class="st1">
				<path d="M0 729.02 L168.22 729.02 L168.22 691.64 L0 691.64 L0 729.02 Z" class="st9"/>
			</g>
			<path d="M0 729.02 L168.22 729.02 L168.22 691.64 L0 691.64 L0 729.02 Z" class="st7"/>
			<text x="41.11" y="713.93" class="st4" v:langID="2057"><v:paragraph v:horizAlign="1"/><v:tabList/>documentation</text>		</g>
		<g id="shape40-154" v:mID="40" v:groupContext="shape" transform="translate(500.145,77.2782) rotate(-90)">
			<title>Sheet.40</title>
			<path d="M0 729.02 L18.69 729.02" class="st6"/>
		</g>
		<g id="shape41-157" v:mID="41" v:groupContext="shape" transform="translate(738.538,-390.58)">
			<title>Rectangle.558</title>
			<desc>descriptive</desc>
			<v:userDefs>
				<v:ud v:nameU="visVersion" v:val="VT0(11):26"/>
			</v:userDefs>
			<v:textBlock v:margins="rect(4,4,4,4)" v:tabSpace="42.5197"/>
			<v:textRect cx="56.0734" cy="715.001" width="112.15" height="28.0367"/>
			<g id="shadow41-158" v:groupContext="shadow" v:shadowOffsetX="2.12132" v:shadowOffsetY="-2.12132" v:shadowType="1"
					transform="matrix(1,0,0,1,2.12132,2.12132)" class="st1">
				<path d="M0 729.02 L112.15 729.02 L112.15 700.98 L0 700.98 L0 729.02 Z" class="st9"/>
			</g>
			<path d="M0 729.02 L112.15 729.02 L112.15 700.98 L0 700.98 L0 729.02 Z" class="st7"/>
			<text x="24.39" y="718.6" class="st4" v:langID="2057"><v:paragraph v:horizAlign="1"/><v:tabList/>descriptive</text>		</g>
		<g id="shape42-163" v:mID="42" v:groupContext="shape" transform="translate(738.538,1053.44) rotate(180)">
			<title>Sheet.42</title>
			<path d="M0 729.02 L18.69 729.02" class="st6"/>
		</g>
		<g id="shape43-166" v:mID="43" v:groupContext="shape" transform="translate(-54.414,704.712) rotate(-90.2599)">
			<title>Sheet.43</title>
			<path d="M0 729.02 L512.5 729.02" class="st6"/>
		</g>
		<g id="shape44-169" v:mID="44" v:groupContext="shape" transform="translate(693.679,-483.724)">
			<title>Rectangle.569</title>
			<desc>METS.xml</desc>
			<v:userDefs>
				<v:ud v:nameU="visVersion" v:val="VT0(11):26"/>
			</v:userDefs>
			<v:textBlock v:margins="rect(4,4,4,4)" v:tabSpace="42.5197"/>
			<v:textRect cx="59.8116" cy="710.328" width="119.63" height="37.3823"/>
			<g id="shadow44-170" v:groupContext="shadow" v:shadowOffsetX="2.12132" v:shadowOffsetY="-2.12132" v:shadowType="1"
					transform="matrix(1,0,0,1,2.12132,2.12132)" class="st1">
				<path d="M0 729.02 L119.62 729.02 L119.62 691.64 L0 691.64 L0 729.02 Z" class="st9"/>
			</g>
			<path d="M0 729.02 L119.62 729.02 L119.62 691.64 L0 691.64 L0 729.02 Z" class="st10"/>
			<text x="31.14" y="713.93" class="st4" v:langID="2057"><v:paragraph v:horizAlign="1"/><v:tabList/>METS.xml</text>		</g>
		<g id="shape45-175" v:mID="45" v:groupContext="shape" transform="translate(695.769,955.62) rotate(179.836)">
			<title>Sheet.45</title>
			<path d="M0 729.02 L21.69 729.02" class="st6"/>
		</g>
		<g id="shape46-178" v:mID="46" v:groupContext="shape" transform="translate(693.679,-433.571)">
			<title>Rectangle.573</title>
			<desc>metadata</desc>
			<v:userDefs>
				<v:ud v:nameU="visVersion" v:val="VT0(11):26"/>
			</v:userDefs>
			<v:textBlock v:margins="rect(4,4,4,4)" v:tabSpace="42.5197"/>
			<v:textRect cx="59.8116" cy="710.328" width="119.63" height="37.3823"/>
			<g id="shadow46-179" v:groupContext="shadow" v:shadowOffsetX="2.12132" v:shadowOffsetY="-2.12132" v:shadowType="1"
					transform="matrix(1,0,0,1,2.12132,2.12132)" class="st1">
				<rect x="0" y="691.637" width="119.623" height="37.3823" class="st2"/>
			</g>
			<rect x="0" y="691.637" width="119.623" height="37.3823" class="st3"/>
			<text x="33.47" y="713.93" class="st4" v:langID="2057"><v:paragraph v:horizAlign="1"/><v:tabList/>metadata</text>		</g>
		<g id="shape47-184" v:mID="47" v:groupContext="shape" transform="translate(695.769,1005.77) rotate(179.836)">
			<title>Sheet.47</title>
			<path d="M0 729.02 L21.69 729.02" class="st6"/>
		</g>
		<g id="shape48-187" v:mID="48" v:groupContext="shape" transform="translate(-9.06684,412.93) rotate(-90.0518)">
			<title>Sheet.48</title>
			<path d="M0 729.02 L116.82 729.02" class="st6"/>
		</g>
		<g id="shape49-190" v:mID="49" v:groupContext="shape" transform="translate(697.474,-113.385)">
			<title>Rectangle.580</title>
			<desc>schemas</desc>
			<v:userDefs>
				<v:ud v:nameU="visVersion" v:val="VT0(11):26"/>
			</v:userDefs>
			<v:textBlock v:margins="rect(4,4,4,4)" v:tabSpace="42.5197"/>
			<v:textRect cx="59.8116" cy="710.328" width="119.63" height="37.3823"/>
			<g id="shadow49-191" v:groupContext="shadow" v:shadowOffsetX="2.12132" v:shadowOffsetY="-2.12132" v:shadowType="1"
					transform="matrix(1,0,0,1,2.12132,2.12132)" class="st1">
				<path d="M0 729.02 L119.62 729.02 L119.62 691.64 L0 691.64 L0 729.02 Z" class="st9"/>
			</g>
			<path d="M0 729.02 L119.62 729.02 L119.62 691.64 L0 691.64 L0 729.02 Z" class="st7"/>
			<text x="36.27" y="713.63" class="st11" v:langID="2057"><v:paragraph v:horizAlign="1"/><v:tabList/>schemas</text>		</g>
		<g id="shape50-196" v:mID="50" v:groupContext="shape" transform="translate(697.042,1325.96) rotate(-179.966)">
			<title>Sheet.50</title>
			<path d="M0 729.02 L21.69 729.02" class="st6"/>
		</g>
		<g id="shape51-199" v:mID="51" v:groupContext="shape" transform="translate(814.422,126.156) rotate(89.4448)">
			<title>Sheet.51</title>
			<path d="M0 729.02 L18.38 729.02" class="st5"/>
		</g>
		<g id="shape52-202" v:mID="52" v:groupContext="shape" transform="translate(1346.18,-614.359)">
			<title>Rectangle.596</title>
			<desc>...</desc>
			<v:userDefs>
				<v:ud v:nameU="visVersion" v:val="VT0(11):26"/>
			</v:userDefs>
			<v:textBlock v:margins="rect(4,4,4,4)" v:tabSpace="42.5197"/>
			<v:textRect cx="84.1101" cy="710.328" width="168.23" height="37.3823"/>
			<g id="shadow52-203" v:groupContext="shadow" v:shadowOffsetX="2.12132" v:shadowOffsetY="-2.12132" v:shadowType="1"
					transform="matrix(1,0,0,1,2.12132,2.12132)" class="st1">
				<path d="M0 729.02 L168.22 729.02 L168.22 691.64 L0 691.64 L0 729.02 Z" class="st9"/>
			</g>
			<path d="M0 729.02 L168.22 729.02 L168.22 691.64 L0 691.64 L0 729.02 Z" class="st7"/>
			<text x="79.11" y="713.93" class="st4" v:langID="2057"><v:paragraph v:horizAlign="1"/><v:tabList/>...</text>		</g>
		<g id="shape53-208" v:mID="53" v:groupContext="shape" transform="translate(701.27,77.2782) rotate(-90)">
			<title>Sheet.53</title>
			<path d="M0 729.02 L18.69 729.02" class="st6"/>
		</g>
		<g id="shape54-211" v:mID="54" v:groupContext="shape" transform="translate(738.094,-345.423)">
			<title>Rectangle.598</title>
			<desc>preservation</desc>
			<v:userDefs>
				<v:ud v:nameU="visVersion" v:val="VT0(11):26"/>
			</v:userDefs>
			<v:textBlock v:margins="rect(4,4,4,4)" v:tabSpace="42.5197"/>
			<v:textRect cx="56.6929" cy="715.001" width="113.39" height="28.0367"/>
			<g id="shadow54-212" v:groupContext="shadow" v:shadowOffsetX="2.12132" v:shadowOffsetY="-2.12132" v:shadowType="1"
					transform="matrix(1,0,0,1,2.12132,2.12132)" class="st1">
				<path d="M0 729.02 L113.39 729.02 L113.39 700.98 L0 700.98 L0 729.02 Z" class="st9"/>
			</g>
			<path d="M0 729.02 L113.39 729.02 L113.39 700.98 L0 700.98 L0 729.02 Z" class="st7"/>
			<text x="20.68" y="718.6" class="st4" v:langID="2057"><v:paragraph v:horizAlign="1"/><v:tabList/>preservation</text>		</g>
		<g id="shape55-217" v:mID="55" v:groupContext="shape" transform="translate(738.094,1098.6) rotate(180)">
			<title>Sheet.55</title>
			<path d="M0 729.02 L16.25 729.02" class="st6"/>
		</g>
		<g id="shape56-220" v:mID="56" v:groupContext="shape" transform="translate(738.477,-301.674)">
			<title>Rectangle.600</title>
			<desc>other</desc>
			<v:userDefs>
				<v:ud v:nameU="visVersion" v:val="VT0(11):26"/>
			</v:userDefs>
			<v:textBlock v:margins="rect(4,4,4,4)" v:tabSpace="42.5197"/>
			<v:textRect cx="56.0734" cy="715.001" width="112.15" height="28.0367"/>
			<g id="shadow56-221" v:groupContext="shadow" v:shadowOffsetX="2.12132" v:shadowOffsetY="-2.12132" v:shadowType="1"
					transform="matrix(1,0,0,1,2.12132,2.12132)" class="st1">
				<path d="M0 729.02 L112.15 729.02 L112.15 700.98 L0 700.98 L0 729.02 Z" class="st9"/>
			</g>
			<path d="M0 729.02 L112.15 729.02 L112.15 700.98 L0 700.98 L0 729.02 Z" class="st7"/>
			<text x="41.07" y="718.6" class="st4" v:langID="2057"><v:paragraph v:horizAlign="1"/><v:tabList/>other</text>		</g>
		<g id="shape57-226" v:mID="57" v:groupContext="shape" transform="translate(738.477,1142.19) rotate(180)">
			<title>Sheet.57</title>
			<path d="M0 729.02 L18.69 729.02" class="st6"/>
		</g>
		<g id="shape58-229" v:mID="58" v:groupContext="shape" transform="translate(697.465,-60.4222)">
			<title>Rectangle.602</title>
			<desc>documentation</desc>
			<v:userDefs>
				<v:ud v:nameU="visVersion" v:val="VT0(11):26"/>
			</v:userDefs>
			<v:textBlock v:margins="rect(4,4,4,4)" v:tabSpace="42.5197"/>
			<v:textRect cx="59.8116" cy="710.328" width="119.63" height="37.3823"/>
			<g id="shadow58-230" v:groupContext="shadow" v:shadowOffsetX="2.12132" v:shadowOffsetY="-2.12132" v:shadowType="1"
					transform="matrix(1,0,0,1,2.12132,2.12132)" class="st1">
				<path d="M0 729.02 L119.62 729.02 L119.62 691.64 L0 691.64 L0 729.02 Z" class="st9"/>
			</g>
			<path d="M0 729.02 L119.62 729.02 L119.62 691.64 L0 691.64 L0 729.02 Z" class="st7"/>
			<text x="20.4" y="713.63" class="st11" v:langID="2057"><v:paragraph v:horizAlign="1"/><v:tabList/>documentation</text>		</g>
		<g id="shape59-235" v:mID="59" v:groupContext="shape" transform="translate(697.033,1378.92) rotate(-179.966)">
			<title>Sheet.59</title>
			<path d="M0 729.02 L21.69 729.02" class="st6"/>
		</g>
		<g id="shape60-238" v:mID="60" v:groupContext="shape" transform="translate(698.211,-8.20504)">
			<title>Rectangle.604</title>
			<desc>...</desc>
			<v:userDefs>
				<v:ud v:nameU="visVersion" v:val="VT0(11):26"/>
			</v:userDefs>
			<v:textBlock v:margins="rect(4,4,4,4)" v:tabSpace="42.5197"/>
			<v:textRect cx="59.8116" cy="710.328" width="119.63" height="37.3823"/>
			<g id="shadow60-239" v:groupContext="shadow" v:shadowOffsetX="2.12132" v:shadowOffsetY="-2.12132" v:shadowType="1"
					transform="matrix(1,0,0,1,2.12132,2.12132)" class="st1">
				<path d="M0 729.02 L119.62 729.02 L119.62 691.64 L0 691.64 L0 729.02 Z" class="st9"/>
			</g>
			<path d="M0 729.02 L119.62 729.02 L119.62 691.64 L0 691.64 L0 729.02 Z" class="st7"/>
			<text x="55.23" y="713.63" class="st11" v:langID="2057"><v:paragraph v:horizAlign="1"/><v:tabList/>...</text>		</g>
		<g id="shape61-244" v:mID="61" v:groupContext="shape" transform="translate(702.255,1431.13) rotate(179.682)">
			<title>Sheet.61</title>
			<path d="M0 729.02 L23.9 729.02" class="st6"/>
		</g>
		<g id="shape62-247" v:mID="62" v:groupContext="shape" transform="translate(226.563,550.203) rotate(-90)">
			<title>Sheet.62</title>
			<path d="M0 729.02 L70.09 729.02" class="st6"/>
		</g>
		<g id="shape63-250" v:mID="63" v:groupContext="shape" transform="translate(877.58,-539.79)">
			<title>Rectangle.607</title>
			<desc>representationID</desc>
			<v:userDefs>
				<v:ud v:nameU="visVersion" v:val="VT0(11):26"/>
			</v:userDefs>
			<v:textBlock v:margins="rect(4,4,4,4)" v:tabSpace="42.5197"/>
			<v:textRect cx="84.1101" cy="710.334" width="168.23" height="37.3708"/>
			<g id="shadow63-251" v:groupContext="shadow" v:shadowOffsetX="2.12132" v:shadowOffsetY="-2.12132" v:shadowType="1"
					transform="matrix(1,0,0,1,2.12132,2.12132)" class="st1">
				<path d="M0 729.02 L168.22 729.02 L168.22 691.65 L0 691.65 L0 729.02 Z" class="st9"/>
			</g>
			<path d="M0 729.02 L168.22 729.02 L168.22 691.65 L0 691.65 L0 729.02 Z" class="st7"/>
			<text x="36.43" y="713.93" class="st4" v:langID="2057"><v:paragraph v:horizAlign="1"/><v:tabList/>representationID</text>		</g>
		<g id="shape64-256" v:mID="64" v:groupContext="shape" transform="translate(929.415,-248.908)">
			<title>Rectangle.608</title>
			<desc>data</desc>
			<v:userDefs>
				<v:ud v:nameU="visVersion" v:val="VT0(11):26"/>
			</v:userDefs>
			<v:textBlock v:margins="rect(4,4,4,4)" v:tabSpace="42.5197"/>
			<v:textRect cx="59.8116" cy="710.328" width="119.63" height="37.3823"/>
			<g id="shadow64-257" v:groupContext="shadow" v:shadowOffsetX="2.12132" v:shadowOffsetY="-2.12132" v:shadowType="1"
					transform="matrix(1,0,0,1,2.12132,2.12132)" class="st1">
				<path d="M0 729.02 L119.62 729.02 L119.62 691.64 L0 691.64 L0 729.02 Z" class="st9"/>
			</g>
			<path d="M0 729.02 L119.62 729.02 L119.62 691.64 L0 691.64 L0 729.02 Z" class="st7"/>
			<text x="47.47" y="713.93" class="st4" v:langID="2057"><v:paragraph v:horizAlign="1"/><v:tabList/>data</text>		</g>
		<g id="shape65-262" v:mID="65" v:groupContext="shape" transform="translate(928.982,1190.44) rotate(-179.966)">
			<title>Sheet.65</title>
			<path d="M0 729.02 L21.69 729.02" class="st6"/>
		</g>
		<g id="shape66-265" v:mID="66" v:groupContext="shape" transform="translate(974.274,-206.853)">
			<title>Rectangle.610</title>
			<desc>File1.doc</desc>
			<v:userDefs>
				<v:ud v:nameU="visVersion" v:val="VT0(11):26"/>
			</v:userDefs>
			<v:textBlock v:margins="rect(4,4,4,4)" v:tabSpace="42.5197"/>
			<v:textRect cx="56.0734" cy="715.001" width="112.15" height="28.0367"/>
			<g id="shadow66-266" v:groupContext="shadow" v:shadowOffsetX="2.12132" v:shadowOffsetY="-2.12132" v:shadowType="1"
					transform="matrix(1,0,0,1,2.12132,2.12132)" class="st1">
				<path d="M0 729.02 L112.15 729.02 L112.15 700.98 L0 700.98 L0 729.02 Z" class="st9"/>
			</g>
			<path d="M0 729.02 L112.15 729.02 L112.15 700.98 L0 700.98 L0 729.02 Z" class="st10"/>
			<text x="30.07" y="718.6" class="st4" v:langID="2057"><v:paragraph v:horizAlign="1"/><v:tabList/>File1.doc</text>		</g>
		<g id="shape67-271" v:mID="67" v:groupContext="shape" transform="translate(974.274,-164.798)">
			<title>Rectangle.611</title>
			<desc>...</desc>
			<v:userDefs>
				<v:ud v:nameU="visVersion" v:val="VT0(11):26"/>
			</v:userDefs>
			<v:textBlock v:margins="rect(4,4,4,4)" v:tabSpace="42.5197"/>
			<v:textRect cx="56.0734" cy="715.001" width="112.15" height="28.0367"/>
			<g id="shadow67-272" v:groupContext="shadow" v:shadowOffsetX="2.12132" v:shadowOffsetY="-2.12132" v:shadowType="1"
					transform="matrix(1,0,0,1,2.12132,2.12132)" class="st1">
				<path d="M0 729.02 L112.15 729.02 L112.15 700.98 L0 700.98 L0 729.02 Z" class="st9"/>
			</g>
			<path d="M0 729.02 L112.15 729.02 L112.15 700.98 L0 700.98 L0 729.02 Z" class="st10"/>
			<text x="51.07" y="718.6" class="st4" v:langID="2057"><v:paragraph v:horizAlign="1"/><v:tabList/>...</text>		</g>
		<g id="shape68-277" v:mID="68" v:groupContext="shape" transform="translate(974.274,1279.22) rotate(180)">
			<title>Sheet.68</title>
			<path d="M0 729.02 L18.69 729.02" class="st6"/>
		</g>
		<g id="shape69-280" v:mID="69" v:groupContext="shape" transform="translate(974.274,1237.17) rotate(180)">
			<title>Sheet.69</title>
			<path d="M0 729.02 L18.69 729.02" class="st6"/>
		</g>
		<g id="shape70-283" v:mID="70" v:groupContext="shape" transform="translate(178.598,706.004) rotate(-90.3169)">
			<title>Sheet.70</title>
			<path d="M0 729.02 L512.44 729.02" class="st6"/>
		</g>
		<g id="shape71-286" v:mID="71" v:groupContext="shape" transform="translate(926.177,-483.093)">
			<title>Rectangle.617</title>
			<desc>METS.xml</desc>
			<v:userDefs>
				<v:ud v:nameU="visVersion" v:val="VT0(11):26"/>
			</v:userDefs>
			<v:textBlock v:margins="rect(4,4,4,4)" v:tabSpace="42.5197"/>
			<v:textRect cx="59.8116" cy="710.328" width="119.63" height="37.3823"/>
			<g id="shadow71-287" v:groupContext="shadow" v:shadowOffsetX="2.12132" v:shadowOffsetY="-2.12132" v:shadowType="1"
					transform="matrix(1,0,0,1,2.12132,2.12132)" class="st1">
				<path d="M0 729.02 L119.62 729.02 L119.62 691.64 L0 691.64 L0 729.02 Z" class="st9"/>
			</g>
			<path d="M0 729.02 L119.62 729.02 L119.62 691.64 L0 691.64 L0 729.02 Z" class="st10"/>
			<text x="31.14" y="713.93" class="st4" v:langID="2057"><v:paragraph v:horizAlign="1"/><v:tabList/>METS.xml</text>		</g>
		<g id="shape72-292" v:mID="72" v:groupContext="shape" transform="translate(928.267,956.251) rotate(179.836)">
			<title>Sheet.72</title>
			<path d="M0 729.02 L21.69 729.02" class="st6"/>
		</g>
		<g id="shape73-295" v:mID="73" v:groupContext="shape" transform="translate(926.177,-432.94)">
			<title>Rectangle.619</title>
			<desc>metadata</desc>
			<v:userDefs>
				<v:ud v:nameU="visVersion" v:val="VT0(11):26"/>
			</v:userDefs>
			<v:textBlock v:margins="rect(4,4,4,4)" v:tabSpace="42.5197"/>
			<v:textRect cx="59.8116" cy="710.328" width="119.63" height="37.3823"/>
			<g id="shadow73-296" v:groupContext="shadow" v:shadowOffsetX="2.12132" v:shadowOffsetY="-2.12132" v:shadowType="1"
					transform="matrix(1,0,0,1,2.12132,2.12132)" class="st1">
				<path d="M0 729.02 L119.62 729.02 L119.62 691.64 L0 691.64 L0 729.02 Z" class="st9"/>
			</g>
			<path d="M0 729.02 L119.62 729.02 L119.62 691.64 L0 691.64 L0 729.02 Z" class="st7"/>
			<text x="33.47" y="713.93" class="st4" v:langID="2057"><v:paragraph v:horizAlign="1"/><v:tabList/>metadata</text>		</g>
		<g id="shape74-301" v:mID="74" v:groupContext="shape" transform="translate(928.267,1006.4) rotate(179.836)">
			<title>Sheet.74</title>
			<path d="M0 729.02 L21.69 729.02" class="st6"/>
		</g>
		<g id="shape75-304" v:mID="75" v:groupContext="shape" transform="translate(930.915,-112.552)">
			<title>Rectangle.622</title>
			<desc>schemas</desc>
			<v:userDefs>
				<v:ud v:nameU="visVersion" v:val="VT0(11):26"/>
			</v:userDefs>
			<v:textBlock v:margins="rect(4,4,4,4)" v:tabSpace="42.5197"/>
			<v:textRect cx="59.8116" cy="710.328" width="119.63" height="37.3823"/>
			<g id="shadow75-305" v:groupContext="shadow" v:shadowOffsetX="2.12132" v:shadowOffsetY="-2.12132" v:shadowType="1"
					transform="matrix(1,0,0,1,2.12132,2.12132)" class="st1">
				<path d="M0 729.02 L119.62 729.02 L119.62 691.64 L0 691.64 L0 729.02 Z" class="st9"/>
			</g>
			<path d="M0 729.02 L119.62 729.02 L119.62 691.64 L0 691.64 L0 729.02 Z" class="st7"/>
			<text x="36.27" y="713.63" class="st11" v:langID="2057"><v:paragraph v:horizAlign="1"/><v:tabList/>schemas</text>		</g>
		<g id="shape76-310" v:mID="76" v:groupContext="shape" transform="translate(930.483,1326.8) rotate(-179.966)">
			<title>Sheet.76</title>
			<path d="M0 729.02 L21.69 729.02" class="st6"/>
		</g>
		<g id="shape77-313" v:mID="77" v:groupContext="shape" transform="translate(930.907,-59.5885)">
			<title>Rectangle.628</title>
			<desc>documentation</desc>
			<v:userDefs>
				<v:ud v:nameU="visVersion" v:val="VT0(11):26"/>
			</v:userDefs>
			<v:textBlock v:margins="rect(4,4,4,4)" v:tabSpace="42.5197"/>
			<v:textRect cx="59.8116" cy="710.328" width="119.63" height="37.3823"/>
			<g id="shadow77-314" v:groupContext="shadow" v:shadowOffsetX="2.12132" v:shadowOffsetY="-2.12132" v:shadowType="1"
					transform="matrix(1,0,0,1,2.12132,2.12132)" class="st1">
				<path d="M0 729.02 L119.62 729.02 L119.62 691.64 L0 691.64 L0 729.02 Z" class="st9"/>
			</g>
			<path d="M0 729.02 L119.62 729.02 L119.62 691.64 L0 691.64 L0 729.02 Z" class="st7"/>
			<text x="20.4" y="713.63" class="st11" v:langID="2057"><v:paragraph v:horizAlign="1"/><v:tabList/>documentation</text>		</g>
		<g id="shape78-319" v:mID="78" v:groupContext="shape" transform="translate(930.474,1379.76) rotate(-179.966)">
			<title>Sheet.78</title>
			<path d="M0 729.02 L21.69 729.02" class="st6"/>
		</g>
		<g id="shape79-322" v:mID="79" v:groupContext="shape" transform="translate(931.653,-7.37132)">
			<title>Rectangle.630</title>
			<desc>...</desc>
			<v:userDefs>
				<v:ud v:nameU="visVersion" v:val="VT0(11):26"/>
			</v:userDefs>
			<v:textBlock v:margins="rect(4,4,4,4)" v:tabSpace="42.5197"/>
			<v:textRect cx="59.8116" cy="710.328" width="119.63" height="37.3823"/>
			<g id="shadow79-323" v:groupContext="shadow" v:shadowOffsetX="2.12132" v:shadowOffsetY="-2.12132" v:shadowType="1"
					transform="matrix(1,0,0,1,2.12132,2.12132)" class="st1">
				<path d="M0 729.02 L119.62 729.02 L119.62 691.64 L0 691.64 L0 729.02 Z" class="st9"/>
			</g>
			<path d="M0 729.02 L119.62 729.02 L119.62 691.64 L0 691.64 L0 729.02 Z" class="st7"/>
			<text x="55.23" y="713.63" class="st11" v:langID="2057"><v:paragraph v:horizAlign="1"/><v:tabList/>...</text>		</g>
		<g id="shape80-328" v:mID="80" v:groupContext="shape" transform="translate(919.139,1431.87) rotate(-179.016)">
			<title>Sheet.80</title>
			<path d="M0 729.02 L24.33 729.02" class="st6"/>
		</g>
		<g id="shape81-331" v:mID="81" v:groupContext="shape" transform="translate(1.25,-541.476)">
			<title>Rectangle.500</title>
			<desc>descriptive</desc>
			<v:userDefs>
				<v:ud v:nameU="visVersion" v:val="VT0(11):26"/>
			</v:userDefs>
			<v:textBlock v:margins="rect(4,4,4,4)" v:tabSpace="42.5197"/>
			<v:textRect cx="84.1101" cy="710.334" width="168.23" height="37.3708"/>
			<path d="M0 729.02 L168.22 729.02 L168.22 691.65 L0 691.65 L0 729.02 Z" class="st7"/>
			<text x="52.43" y="713.93" class="st4" v:langID="2057"><v:paragraph v:horizAlign="1"/><v:tabList/>descriptive</text>		</g>
		<g id="shape82-334" v:mID="82" v:groupContext="shape" transform="translate(394.621,-540.109)">
			<title>Rectangle.591</title>
			<desc>other</desc>
			<v:userDefs>
				<v:ud v:nameU="visVersion" v:val="VT0(11):26"/>
			</v:userDefs>
			<v:textBlock v:margins="rect(4,4,4,4)" v:tabSpace="42.5197"/>
			<v:textRect cx="84.1101" cy="710.328" width="168.23" height="37.3823"/>
			<path d="M0 729.02 L168.22 729.02 L168.22 691.64 L0 691.64 L0 729.02 Z" class="st7"/>
			<text x="69.11" y="713.93" class="st4" v:langID="2057"><v:paragraph v:horizAlign="1"/><v:tabList/>other</text>		</g>
		<g id="shape83-337" v:mID="83" v:groupContext="shape" transform="translate(970.661,-389.746)">
			<title>Rectangle.633</title>
			<desc>descriptive</desc>
			<v:userDefs>
				<v:ud v:nameU="visVersion" v:val="VT0(11):26"/>
			</v:userDefs>
			<v:textBlock v:margins="rect(4,4,4,4)" v:tabSpace="42.5197"/>
			<v:textRect cx="56.0734" cy="715.001" width="112.15" height="28.0367"/>
			<g id="shadow83-338" v:groupContext="shadow" v:shadowOffsetX="2.12132" v:shadowOffsetY="-2.12132" v:shadowType="1"
					transform="matrix(1,0,0,1,2.12132,2.12132)" class="st1">
				<path d="M0 729.02 L112.15 729.02 L112.15 700.98 L0 700.98 L0 729.02 Z" class="st9"/>
			</g>
			<path d="M0 729.02 L112.15 729.02 L112.15 700.98 L0 700.98 L0 729.02 Z" class="st7"/>
			<text x="24.39" y="718.6" class="st4" v:langID="2057"><v:paragraph v:horizAlign="1"/><v:tabList/>descriptive</text>		</g>
		<g id="shape84-343" v:mID="84" v:groupContext="shape" transform="translate(970.661,1054.27) rotate(180)">
			<title>Sheet.84</title>
			<path d="M0 729.02 L18.69 729.02" class="st6"/>
		</g>
		<g id="shape85-346" v:mID="85" v:groupContext="shape" transform="translate(223.056,413.764) rotate(-90.0518)">
			<title>Sheet.85</title>
			<path d="M0 729.02 L116.82 729.02" class="st6"/>
		</g>
		<g id="shape86-349" v:mID="86" v:groupContext="shape" transform="translate(970.217,-344.589)">
			<title>Rectangle.636</title>
			<desc>preservation</desc>
			<v:userDefs>
				<v:ud v:nameU="visVersion" v:val="VT0(11):26"/>
			</v:userDefs>
			<v:textBlock v:margins="rect(4,4,4,4)" v:tabSpace="42.5197"/>
			<v:textRect cx="56.6929" cy="715.001" width="113.39" height="28.0367"/>
			<g id="shadow86-350" v:groupContext="shadow" v:shadowOffsetX="2.12132" v:shadowOffsetY="-2.12132" v:shadowType="1"
					transform="matrix(1,0,0,1,2.12132,2.12132)" class="st1">
				<path d="M0 729.02 L113.39 729.02 L113.39 700.98 L0 700.98 L0 729.02 Z" class="st9"/>
			</g>
			<path d="M0 729.02 L113.39 729.02 L113.39 700.98 L0 700.98 L0 729.02 Z" class="st7"/>
			<text x="20.68" y="718.6" class="st4" v:langID="2057"><v:paragraph v:horizAlign="1"/><v:tabList/>preservation</text>		</g>
		<g id="shape87-355" v:mID="87" v:groupContext="shape" transform="translate(970.217,1099.43) rotate(180)">
			<title>Sheet.87</title>
			<path d="M0 729.02 L16.25 729.02" class="st6"/>
		</g>
		<g id="shape88-358" v:mID="88" v:groupContext="shape" transform="translate(970.601,-300.841)">
			<title>Rectangle.638</title>
			<desc>other</desc>
			<v:userDefs>
				<v:ud v:nameU="visVersion" v:val="VT0(11):26"/>
			</v:userDefs>
			<v:textBlock v:margins="rect(4,4,4,4)" v:tabSpace="42.5197"/>
			<v:textRect cx="56.0734" cy="715.001" width="112.15" height="28.0367"/>
			<g id="shadow88-359" v:groupContext="shadow" v:shadowOffsetX="2.12132" v:shadowOffsetY="-2.12132" v:shadowType="1"
					transform="matrix(1,0,0,1,2.12132,2.12132)" class="st1">
				<path d="M0 729.02 L112.15 729.02 L112.15 700.98 L0 700.98 L0 729.02 Z" class="st9"/>
			</g>
			<path d="M0 729.02 L112.15 729.02 L112.15 700.98 L0 700.98 L0 729.02 Z" class="st7"/>
			<text x="41.07" y="718.6" class="st4" v:langID="2057"><v:paragraph v:horizAlign="1"/><v:tabList/>other</text>		</g>
		<g id="shape89-364" v:mID="89" v:groupContext="shape" transform="translate(970.601,1143.02) rotate(180)">
			<title>Sheet.89</title>
			<path d="M0 729.02 L18.69 729.02" class="st6"/>
		</g>
	</g>
</svg>
